<svg width="1200" height="630" viewBox="0 0 1200 630" fill="none" xmlns="http://www.w3.org/2000/svg">
  <defs>
    <linearGradient id="g1" x1="0" y1="0" x2="1" y2="1">
      <stop stop-color="#38bdf8" offset="0%"/>
      <stop stop-color="#6366f1" offset="50%"/>
      <stop stop-color="#22d3ee" offset="100%"/>
    </linearGradient>
  </defs>
  <rect width="1200" height="630" fill="#0f172a"/>
  <rect x="80" y="120" width="1040" height="390" rx="32" fill="#0b1224" stroke="#1e293b" stroke-width="3"/>
  <text x="120" y="210" fill="#e2e8f0" font-family="'Inter', sans-serif" font-size="56" font-weight="700">Acquisition Edge</text>
  <text x="120" y="270" fill="#94a3b8" font-family="'Inter', sans-serif" font-size="30">Exclusive acquisition intelligence · Exit Readiness + Business Health</text>
  <rect x="120" y="320" width="320" height="160" rx="20" fill="#0f172a" stroke="#1e293b"/>
  <rect x="480" y="320" width="320" height="160" rx="20" fill="#0f172a" stroke="#1e293b"/>
  <rect x="840" y="320" width="240" height="160" rx="20" fill="#0f172a" stroke="#1e293b"/>
  <text x="150" y="370" fill="#e2e8f0" font-family="'Inter', sans-serif" font-size="22" font-weight="700">Exit Readiness 87</text>
  <rect x="150" y="390" width="260" height="14" rx="7" fill="#1e293b"/>
  <rect x="150" y="390" width="226" height="14" rx="7" fill="url(#g1)"/>
  <text x="150" y="428" fill="#94a3b8" font-family="'Inter', sans-serif" font-size="14">Owner disengagement + licensing friction + complaint spikes</text>
  <text x="510" y="370" fill="#e2e8f0" font-family="'Inter', sans-serif" font-size="22" font-weight="700">Health Score 73</text>
  <rect x="510" y="390" width="260" height="14" rx="7" fill="#1e293b"/>
  <rect x="510" y="390" width="190" height="14" rx="7" fill="url(#g1)"/>
  <text x="510" y="428" fill="#94a3b8" font-family="'Inter', sans-serif" font-size="14">Review velocity + hiring + multi-location growth</text>
  <text x="870" y="370" fill="#e2e8f0" font-family="'Inter', sans-serif" font-size="22" font-weight="700">Exclusive</text>
  <text x="870" y="405" fill="#94a3b8" font-family="'Inter', sans-serif" font-size="14">One client per state per industry</text>
</svg>
